<svg xmlns="http://www.w3.org/2000/svg" width="453" height="452" viewBox="0 0 453 452" fill="none"><g clip-path="url(#clip0_1976_327)"><path d="M226.109 63.56C226.109 50.4489 231.317 37.8748 240.588 28.6038C249.859 19.3328 262.433 14.1244 275.544 14.1244C288.656 14.1244 301.23 19.3328 310.501 28.6038C319.772 37.8748 324.98 50.4489 324.98 63.56V77.6845H339.104V63.56C339.104 46.7029 332.408 30.5361 320.488 18.6163C308.568 6.69648 292.402 0 275.544 0C258.687 0 242.52 6.69648 230.601 18.6163C218.681 30.5361 211.984 46.7029 211.984 63.56V77.6845H226.109V63.56Z" fill="#313138"></path><path d="M213.402 275.426H282.612C292.958 275.428 303.04 278.69 311.426 284.749C314.76 287.104 317.775 289.881 320.395 293.011L385.015 250.002C388.289 247.765 391.853 245.983 395.608 244.706V98.8708C395.608 96.9978 394.864 95.2015 393.539 93.8771C392.215 92.5526 390.419 91.8086 388.546 91.8086H162.554C160.681 91.8086 158.885 92.5526 157.561 93.8771C156.236 95.2015 155.492 96.9978 155.492 98.8708V250.214C166.754 253.284 177.26 258.646 186.354 265.963C194.047 272.074 203.578 275.409 213.402 275.426ZM211.99 134.182C211.99 132.309 212.734 130.513 214.058 129.188C215.383 127.864 217.179 127.12 219.052 127.12C220.925 127.12 222.722 127.864 224.046 129.188C225.37 130.513 226.114 132.309 226.114 134.182V148.306C226.114 161.418 231.323 173.992 240.594 183.263C249.865 192.534 262.439 197.742 275.55 197.742C288.661 197.742 301.235 192.534 310.506 183.263C319.777 173.992 324.986 161.418 324.986 148.306V134.182C324.986 132.309 325.73 130.513 327.054 129.188C328.378 127.864 330.175 127.12 332.048 127.12C333.921 127.12 335.717 127.864 337.042 129.188C338.366 130.513 339.11 132.309 339.11 134.182V148.306C339.11 165.164 332.414 181.33 320.494 193.25C308.574 205.17 292.407 211.866 275.55 211.866C258.693 211.866 242.526 205.17 230.606 193.25C218.686 181.33 211.99 165.164 211.99 148.306V134.182Z" fill="#313138"></path><path d="M98.9905 240.109H63.6794C59.7791 240.109 56.6172 243.271 56.6172 247.172V444.914C56.6172 448.814 59.7791 451.976 63.6794 451.976H98.9905C102.891 451.976 106.053 448.814 106.053 444.914V247.172C106.053 243.271 102.891 240.109 98.9905 240.109Z" fill="#313138"></path><path d="M7.1875 261.308V430.802C7.1875 432.675 7.93155 434.471 9.25598 435.795C10.5804 437.12 12.3767 437.864 14.2497 437.864H42.4986V254.246H14.2497C12.3767 254.246 10.5804 254.99 9.25598 256.315C7.93155 257.639 7.1875 259.435 7.1875 261.308Z" fill="#313138"></path><path d="M427.316 260.046C421.971 257.132 415.926 255.749 409.846 256.048C403.765 256.347 397.885 258.317 392.852 261.741L327.88 305.033C330.638 311.284 332.058 318.044 332.046 324.877C332.031 337.984 326.818 350.549 317.551 359.817C308.283 369.085 295.717 374.298 282.611 374.313H197.864C195.991 374.313 194.195 373.569 192.87 372.245C191.546 370.92 190.802 369.124 190.802 367.251C190.802 365.378 191.546 363.581 192.87 362.257C194.195 360.933 195.991 360.189 197.864 360.189H282.611C291.976 360.189 300.957 356.468 307.58 349.846C314.202 343.224 317.922 334.243 317.922 324.877C317.932 320.834 317.239 316.819 315.874 313.013C313.405 306.164 308.889 300.241 302.938 296.047C296.988 291.852 289.891 289.59 282.611 289.566H213.401C200.365 289.554 187.718 285.123 177.525 276.996C164.854 266.862 149.116 261.334 132.892 261.317H120.18V430.811H239.673C255.26 430.825 270.492 426.15 283.388 417.393L430.353 317.391C434.884 314.319 438.592 310.182 441.153 305.343C443.714 300.504 445.049 295.112 445.042 289.637C445.091 283.552 443.463 277.571 440.336 272.351C437.209 267.131 432.704 262.874 427.316 260.046Z" fill="#313138"></path></g><defs><clipPath id="clip0_1976_327"><rect width="451.982" height="451.982" fill="white" transform="translate(0.125)"></rect></clipPath></defs></svg>