<svg xmlns="http://www.w3.org/2000/svg" width="453" height="453" viewBox="0 0 453 453" fill="none"><g clip-path="url(#clip0_1976_288)"><path d="M62.1288 275.416L103.937 221.108C105.925 218.542 108.472 216.463 111.385 215.031C114.298 213.599 117.499 212.851 120.745 212.845H393.206L415.452 197.802C418.524 195.727 421.158 193.067 423.201 189.973C425.244 186.879 426.657 183.412 427.359 179.772C428.06 176.131 428.037 172.388 427.291 168.756C426.545 165.125 425.089 161.676 423.008 158.607L343.841 41.6566C341.761 38.5795 339.095 35.9427 335.995 33.8972C332.895 31.8516 329.422 30.4374 325.775 29.7356C322.128 29.0337 318.378 29.0579 314.74 29.8068C311.103 30.5557 307.648 32.0146 304.575 34.1L53.1598 204.37C52.2585 204.977 51.5092 205.783 50.9703 206.726C50.4313 207.669 50.1172 208.724 50.0524 209.808L47.0156 259.456C51.3673 265.386 56.4445 270.748 62.1288 275.416Z" fill="#313138"></path><path d="M339.656 303.314C339.653 306.16 340.605 308.924 342.359 311.165C344.113 313.406 346.568 314.993 349.331 315.673L353.781 316.803V290.531H352.439C349.049 290.531 345.797 291.878 343.4 294.275C341.003 296.672 339.656 299.924 339.656 303.314Z" fill="#313138"></path><path d="M367.93 361.154H369.272C372.387 361.157 375.396 360.02 377.731 357.958C380.065 355.895 381.565 353.05 381.948 349.958C382.33 346.866 381.568 343.742 379.805 341.173C378.042 338.604 375.401 336.769 372.379 336.013L367.93 334.883V361.154Z" fill="#313138"></path><path d="M424.413 226.963H120.738C119.658 226.958 118.591 227.204 117.623 227.682C116.654 228.16 115.811 228.857 115.158 229.718L73.6325 283.744C88.8369 292.78 105.568 298.956 122.997 301.964C128.468 295.921 135.855 291.95 143.914 290.721C151.972 289.492 160.207 291.08 167.23 295.218C174.254 299.355 179.635 305.788 182.466 313.432C185.297 321.076 185.405 329.463 182.771 337.177C180.138 344.891 174.924 351.46 168.009 355.777C161.094 360.093 152.903 361.893 144.816 360.871C136.728 359.85 129.241 356.07 123.617 350.17C117.993 344.269 114.576 336.61 113.944 328.483C119.254 329.613 124.141 330.439 128.534 331.061C129.784 335.897 132.706 340.134 136.783 343.021C140.86 345.907 145.827 347.256 150.804 346.828C155.781 346.4 160.445 344.222 163.969 340.682C167.493 337.142 169.648 332.467 170.053 327.488C170.458 322.51 169.086 317.548 166.181 313.485C163.275 309.422 159.024 306.519 154.182 305.293C149.34 304.066 144.22 304.594 139.73 306.784C135.24 308.974 131.672 312.683 129.657 317.254C125.384 316.682 120.596 315.905 115.441 314.818C54.056 301.823 14.8041 263.602 14.8041 198.715C14.8041 196.842 14.0601 195.045 12.7357 193.721C11.4112 192.396 9.61493 191.652 7.74191 191.652C5.86889 191.652 4.07259 192.396 2.74817 193.721C1.42374 195.045 0.679688 196.842 0.679688 198.715C0.679688 254.323 26.4992 286.83 56.5772 305.905L44.5361 321.527C43.5751 322.757 43.0531 324.273 43.0531 325.835C43.0531 327.396 43.5751 328.912 44.5361 330.143L115.158 421.952C115.822 422.8 116.668 423.489 117.634 423.966C118.599 424.442 119.66 424.695 120.738 424.706H424.413C431.902 424.696 439.082 421.717 444.378 416.422C449.673 411.126 452.653 403.946 452.662 396.457V255.212C452.662 247.72 449.686 240.535 444.388 235.237C439.09 229.94 431.905 226.963 424.413 226.963ZM396.164 304.648C396.164 306.521 395.42 308.317 394.096 309.642C392.771 310.966 390.975 311.71 389.102 311.71C387.229 311.71 385.433 310.966 384.108 309.642C382.784 308.317 382.04 306.521 382.04 304.648V303.306C382.04 301.627 381.709 299.965 381.067 298.414C380.424 296.864 379.483 295.454 378.296 294.267C377.109 293.08 375.7 292.139 374.149 291.497C372.598 290.854 370.936 290.523 369.257 290.523H367.915V320.326L375.825 322.304C382.193 323.898 387.757 327.767 391.469 333.18C395.181 338.594 396.784 345.179 395.977 351.693C395.169 358.207 392.006 364.201 387.084 368.544C382.162 372.887 375.821 375.279 369.257 375.27H367.915V382.332C367.915 384.205 367.171 386.002 365.847 387.326C364.522 388.651 362.726 389.395 360.853 389.395C358.98 389.395 357.184 388.651 355.859 387.326C354.535 386.002 353.791 384.205 353.791 382.332V375.27H352.449C345.316 375.261 338.477 372.423 333.433 367.379C328.389 362.335 325.551 355.496 325.542 348.363V347.021C325.542 345.148 326.286 343.352 327.61 342.028C328.935 340.703 330.731 339.959 332.604 339.959C334.477 339.959 336.274 340.703 337.598 342.028C338.922 343.352 339.666 345.148 339.666 347.021V348.363C339.666 350.042 339.997 351.704 340.639 353.255C341.282 354.806 342.223 356.215 343.41 357.402C344.597 358.589 346.007 359.53 347.557 360.173C349.108 360.815 350.77 361.146 352.449 361.146H353.791V331.343L345.881 329.366C339.514 327.771 333.949 323.903 330.237 318.489C326.525 313.075 324.922 306.491 325.73 299.976C326.537 293.462 329.7 287.469 334.622 283.125C339.544 278.782 345.885 276.39 352.449 276.399H353.791V269.337C353.791 267.464 354.535 265.667 355.859 264.343C357.184 263.019 358.98 262.275 360.853 262.275C362.726 262.275 364.522 263.019 365.847 264.343C367.171 265.667 367.915 267.464 367.915 269.337V276.399H369.257C376.391 276.408 383.229 279.246 388.273 284.29C393.317 289.334 396.155 296.173 396.164 303.306V304.648Z" fill="#313138"></path></g><defs><clipPath id="clip0_1976_288"><rect width="451.982" height="451.982" fill="white" transform="translate(0.671875 0.984375)"></rect></clipPath></defs></svg>