<svg xmlns="http://www.w3.org/2000/svg" width="453" height="453" viewBox="0 0 453 453" fill="none"><path d="M280.026 39.9451L229.884 9.0832C228.784 8.39082 227.511 8.02344 226.212 8.02344C224.912 8.02344 223.639 8.39082 222.539 9.0832L42.5938 119.819L96.4079 152.941L280.026 39.9451Z" fill="#313138"></path><path d="M158.839 191.35L342.457 78.3546L293.587 48.2695L109.969 161.265L158.839 191.35Z" fill="#313138"></path><path d="M355.868 86.6172L172.32 199.613L226.205 232.805L409.823 119.81L355.868 86.6172Z" fill="#313138"></path><path d="M233.273 245.023V445.88L413.53 334.953C414.557 334.321 415.406 333.436 415.994 332.383C416.583 331.329 416.892 330.143 416.891 328.936V132.027L233.273 245.023Z" fill="#313138"></path><path d="M165.555 265.715C165.565 266.979 165.236 268.222 164.603 269.315C163.969 270.408 163.054 271.311 161.953 271.93C160.886 272.491 159.698 272.782 158.492 272.777C157.204 272.767 155.939 272.427 154.82 271.789L123.676 252.58C89.1414 231.322 89.1414 231.322 89.1414 227.367V165.008L35.5391 132.027V325.815C35.5391 328.287 36.8103 333.654 38.9289 334.925L219.157 445.873V245.023L165.555 212.042V265.715ZM86.5989 336.338C85.9629 337.355 85.0779 338.194 84.0276 338.775C82.9772 339.356 81.7962 339.659 80.5961 339.657C79.2922 339.689 78.0101 339.319 76.9237 338.597L56.3726 326.027C55.5797 325.54 54.8904 324.901 54.3441 324.148C53.7979 323.395 53.4053 322.541 53.1889 321.636C52.9725 320.731 52.9365 319.793 53.0829 318.874C53.2292 317.955 53.5552 317.074 54.0421 316.281C54.529 315.488 55.1673 314.799 55.9206 314.252C56.6739 313.706 57.5274 313.313 58.4324 313.097C59.3373 312.881 60.2761 312.845 61.195 312.991C62.1139 313.137 62.995 313.463 63.788 313.95L84.339 326.592C85.1286 327.082 85.8135 327.724 86.3546 328.479C86.8957 329.235 87.2823 330.09 87.4923 330.995C87.7022 331.901 87.7314 332.839 87.5781 333.756C87.4248 334.672 87.0921 335.55 86.5989 336.338ZM133.633 332.1C132.99 333.112 132.104 333.945 131.055 334.525C130.006 335.105 128.829 335.413 127.63 335.419C126.338 335.443 125.064 335.101 123.958 334.431L60.1156 295.094C59.2417 294.656 58.4682 294.041 57.8442 293.289C57.2202 292.536 56.7591 291.662 56.4903 290.723C56.2215 289.783 56.1508 288.797 56.2826 287.829C56.4144 286.86 56.7459 285.929 57.256 285.095C57.7662 284.261 58.4439 283.542 59.2463 282.984C60.0487 282.426 60.9583 282.04 61.9175 281.851C62.8767 281.663 63.8647 281.675 64.8188 281.888C65.7729 282.101 66.6724 282.51 67.4603 283.088L131.303 322.354C132.9 323.341 134.042 324.92 134.479 326.746C134.916 328.573 134.612 330.497 133.633 332.1Z" fill="#313138"></path><path d="M103.297 223.429C112.195 228.938 137.054 244.263 151.461 253.09V203.372L103.297 173.711V223.429Z" fill="#313138"></path></svg>