<svg xmlns="http://www.w3.org/2000/svg" width="453" height="453" viewBox="0 0 453 453" fill="none"><g clip-path="url(#clip0_1976_260)"><path d="M141.687 184.613H120.5V318.796H141.687V184.613Z" fill="#313138"></path><path d="M320.786 198.715H244.443C243.176 198.716 241.932 198.376 240.841 197.73C239.75 197.085 238.854 196.157 238.245 195.046C237.636 193.934 237.337 192.679 237.38 191.412C237.424 190.146 237.807 188.914 238.49 187.846C252.909 166.017 262.619 141.421 267 115.628C267.491 111.973 266.524 108.271 264.309 105.323C262.093 102.375 258.806 100.417 255.158 99.8727C251.511 99.3282 247.796 100.241 244.815 102.413C241.835 104.586 239.829 107.843 239.232 111.483C234.042 142.376 221.07 171.439 201.54 195.933C200.878 196.802 200.023 197.506 199.043 197.989C198.062 198.471 196.983 198.72 195.891 198.715H155.812V304.649H169.089C180.292 304.626 191.061 308.977 199.104 316.774C204.698 322.424 212.271 325.673 220.22 325.835H286.464C289.273 325.835 291.968 324.719 293.954 322.733C295.941 320.746 297.057 318.051 297.057 315.242C297.057 312.432 295.941 309.738 293.954 307.751C291.968 305.765 289.273 304.649 286.464 304.649H247.621C245.748 304.649 243.952 303.905 242.628 302.58C241.303 301.256 240.559 299.459 240.559 297.586C240.559 295.713 241.303 293.917 242.628 292.593C243.952 291.268 245.748 290.524 247.621 290.524H300.588C303.398 290.524 306.092 289.408 308.079 287.421C310.065 285.435 311.181 282.74 311.181 279.931C311.181 277.121 310.065 274.427 308.079 272.44C306.092 270.454 303.398 269.337 300.588 269.337H268.808C266.935 269.337 265.139 268.593 263.814 267.269C262.49 265.945 261.746 264.148 261.746 262.275C261.746 260.402 262.49 258.606 263.814 257.282C265.139 255.957 266.935 255.213 268.808 255.213H307.65C310.46 255.213 313.154 254.097 315.141 252.11C317.128 250.124 318.244 247.429 318.244 244.62C318.244 241.81 317.128 239.116 315.141 237.129C313.154 235.142 310.46 234.026 307.65 234.026H282.933C281.06 234.026 279.263 233.282 277.939 231.958C276.614 230.633 275.87 228.837 275.87 226.964C275.87 225.091 276.614 223.295 277.939 221.97C279.263 220.646 281.06 219.902 282.933 219.902H321.775C324.584 219.902 327.279 218.786 329.265 216.799C331.252 214.813 332.368 212.118 332.368 209.309C332.328 207.844 331.994 206.403 331.385 205.071C330.777 203.739 329.906 202.543 328.825 201.554C327.744 200.566 326.475 199.805 325.094 199.317C323.713 198.829 322.248 198.625 320.786 198.715Z" fill="#313138"></path><path d="M429.845 226.979C430.729 217.401 433.239 208.044 437.267 199.31C442.663 185.305 448.242 170.821 443.765 157.12C439.054 142.812 425.615 134.217 412.62 125.905C404.487 121.426 397.176 115.594 391.003 108.659C386.165 100.639 382.755 91.8411 380.925 82.6558C376.956 67.9876 372.846 52.8179 360.769 44.1243C348.693 35.4307 333.008 36.2994 317.76 37.0621C308.261 38.1927 298.639 37.696 289.307 35.5932C280.922 31.9769 273.214 26.962 266.51 20.7625C254.419 11.059 241.926 0.988281 226.453 0.988281C210.979 0.988281 198.486 11.059 186.396 20.7625C179.694 26.9638 171.984 31.979 163.599 35.5932C154.27 37.6976 144.651 38.2039 135.152 37.0904C119.919 36.3277 104.142 35.5296 92.1434 44.1526C80.1447 52.7756 75.9568 68.0159 71.9878 82.6841C70.1542 91.8628 66.742 100.654 61.903 108.666C55.7201 115.599 48.3999 121.427 40.2573 125.898C27.2981 134.21 13.8798 142.805 9.14109 157.12C4.66364 170.821 10.2428 185.305 15.6383 199.31C19.6666 208.044 22.1767 217.401 23.0607 226.979C22.1767 236.557 19.6666 245.915 15.6383 254.649C10.2428 268.647 4.69895 283.138 9.14109 296.846C13.8516 311.154 27.291 319.749 40.2855 328.061C48.4309 332.534 55.7535 338.364 61.9383 345.3C66.7761 353.32 70.1859 362.118 72.0161 371.303C75.985 385.971 80.0953 401.141 92.1717 409.835C104.248 418.528 119.919 417.603 135.181 416.897C144.668 415.777 154.277 416.273 163.599 418.366C171.983 421.982 179.692 426.997 186.396 433.196C198.486 442.9 210.979 452.971 226.453 452.971C241.926 452.971 254.419 442.9 266.51 433.196C273.212 426.995 280.921 421.98 289.307 418.366C298.636 416.261 308.255 415.755 317.753 416.869C332.994 417.638 348.763 418.436 360.762 409.806C372.761 401.176 376.949 385.943 380.918 371.275C382.751 362.096 386.164 353.305 391.003 345.293C397.186 338.36 404.506 332.532 412.648 328.061C425.643 319.749 439.082 311.154 443.793 296.839C448.27 283.138 442.691 268.654 437.296 254.649C433.258 245.916 430.738 236.559 429.845 226.979ZM329.385 232.841C332.394 238.378 333.176 244.855 331.569 250.948C329.962 257.042 326.089 262.291 320.741 265.624C323.73 269.801 325.333 274.81 325.324 279.946C325.34 285.178 323.689 290.278 320.609 294.507C317.529 298.736 313.182 301.873 308.198 303.463C310.242 307.228 311.272 311.459 311.188 315.741C311.105 320.024 309.909 324.211 307.72 327.893C305.53 331.574 302.421 334.624 298.698 336.742C294.975 338.86 290.765 339.974 286.482 339.975H220.238C208.628 339.823 197.534 335.152 189.313 326.952C183.898 321.704 176.649 318.775 169.108 318.788H155.831V325.851C155.831 327.724 155.087 329.52 153.762 330.844C152.438 332.169 150.641 332.913 148.768 332.913H113.457C111.584 332.913 109.788 332.169 108.463 330.844C107.139 329.52 106.395 327.724 106.395 325.851V177.544C106.395 175.671 107.139 173.875 108.463 172.55C109.788 171.226 111.584 170.482 113.457 170.482H148.768C150.641 170.482 152.438 171.226 153.762 172.55C155.087 173.875 155.831 175.671 155.831 177.544V184.606H192.413C209.368 162.661 220.65 136.874 225.259 109.528C226.456 102.224 230.479 95.6856 236.458 91.3245C242.438 86.9634 249.893 85.1302 257.213 86.2212C264.532 87.3122 271.129 91.2398 275.576 97.155C280.024 103.07 281.965 110.498 280.98 117.833C277.089 141.362 268.952 163.987 256.969 184.606H320.804C324.117 184.534 327.411 185.117 330.498 186.321C333.585 187.526 336.404 189.328 338.792 191.625C341.181 193.921 343.092 196.667 344.417 199.705C345.741 202.742 346.453 206.011 346.511 209.324C346.518 214.553 344.863 219.65 341.785 223.877C338.706 228.104 334.364 231.243 329.385 232.841Z" fill="#313138"></path></g><defs><clipPath id="clip0_1976_260"><rect width="451.982" height="451.982" fill="white" transform="translate(0.453125 0.984375)"></rect></clipPath></defs></svg>